Screen
 
http://bayimg.com/pAPbcaADc


Seeding Time 24/7

Don't Forget To Say Thanks If You Like My Post



-=Media Info=-


Format : Windows Media
File size : 175 MiB
Duration : 12mn 30s
Overall bit rate mode : Constant
Overall bit rate : 1 951 Kbps
Maximum Overall bit rate : 1 961 Kbps
Encoded date : UTC 2007-01-24 20:01:24.562
Copyright : (c) www.realdrunkengirls.com
WM/PromotionURL : http://www.realdrunkengirls.com/

Video
ID : 2
Format : VC-1
Format profile : Main
Codec ID : WMV3
Codec ID/Info : Windows Media Video 9
Codec ID/Hint : WMV3
Description of the codec : Windows Media Video 9
Duration : 12mn 30s
Bit rate mode : Constant
Bit rate : 1 815 Kbps
Width : 560 pixels
Height : 420 pixels
Display aspect ratio : 4:3
Frame rate : 25.000 fps
Bit depth : 8 bits
Scan type : Progressive
Compression mode : Lossy
Bits/(Pixel*Frame) : 0.309
Stream size : 162 MiB (93%)
Language : Russian

Audio
ID : 1
Format : WMA
Format version : Version 2
Codec ID : 161
Codec ID/Info : Windows Media Audio
Description of the codec : Windows Media Audio 9.1 - 128 kbps, 44 kHz, stereo 1-pass CBR
Duration : 12mn 30s
Bit rate mode : Constant
Bit rate : 128 Kbps
Channel(s) : 2 channels
Sampling rate : 44.1 KHz
Bit depth : 16 bits
Stream size : 11.5 MiB (7%)
Language : Russian
